<svg xmlns="http://www.w3.org/2000/svg" width="15.716" height="19.747" viewBox="0 0 15.716 19.747">
  <g id="noun_Running_4303081" transform="translate(-19.284 -12.686)">
    <path id="Path_2284" data-name="Path 2284" d="M50.192,16.391a2.287,2.287,0,1,1-.377-3.212A2.291,2.291,0,0,1,50.192,16.391Z" transform="translate(-18.63)" fill-rule="evenodd"/>
    <path id="Path_2285" data-name="Path 2285" d="M25.711,29.361a.992.992,0,0,0-.716.305l-2.121,2.206a.993.993,0,1,0,1.432,1.375l1.825-1.9,1.749,0L25.89,34.9a1.173,1.173,0,0,0,.479,1.6c1.548.843,2.832,1.3,4.358,2.006l1.308,4.652a1.165,1.165,0,0,0,2.242-.633l-1.456-5.167a1.162,1.162,0,0,0-.633-.743l-2.242-1.029L31.3,32.8l1.179,1.368a.993.993,0,0,0,1.136.268L36.6,33.188a.994.994,0,1,0-.764-1.831l-2.321.969L31.7,30.212a1.006,1.006,0,0,0-.386-.272l-1.249-.5a.992.992,0,0,0-.366-.07Z" transform="translate(-2.27 -11.581)"/>
    <path id="Path_2286" data-name="Path 2286" d="M24.263,55.331,23.745,56.4l-3.57,1a1.163,1.163,0,1,0,.625,2.24L24.876,58.5a1.164,1.164,0,0,0,.737-.614l.767-1.583Z" transform="translate(0 -29.618)"/>
  </g>
</svg>
